<svg viewBox="-15 0 512 512.001" xmlns="http://www.w3.org/2000/svg"><path d="m60.59375 341.332031h44.34375v-61.023437zm0 0" fill="#ffa9db"/><path d="m436.949219 0h-384.480469v61.34375h52.46875v418.59375c0 17.707031 14.367188 32.0625 32.089844 32.0625h312.175781c17.722656 0 32.089844-14.355469 32.089844-32.0625v-435.628906c0-24.46875-19.851563-44.308594-44.34375-44.308594zm0 0" fill="#ffb9e5"/><path d="m436.949219 0h-71.984375c24.492187 0 44.34375 19.839844 44.34375 44.308594v435.625c0 17.710937-14.363282 32.066406-32.085938 32.066406h71.984375c17.71875 0 32.085938-14.355469 32.085938-32.066406v-435.625c0-24.46875-19.851563-44.308594-44.34375-44.308594zm0 0" fill="#ffa9db"/><path d="m63.324219 341.332031h-21.707031c-22.984376 0-41.617188-18.632812-41.617188-41.613281v-258.105469c0-22.980469 18.632812-41.613281 41.617188-41.613281h21.707031c22.980469 0 41.613281 18.632812 41.613281 41.613281v258.105469c0 22.984375-18.628906 41.613281-41.613281 41.613281zm0 0" fill="#ff87ba"/><path d="m53.625 308.867188h-2.3125c-9.742188 0-17.644531-7.898438-17.644531-17.644532v-241.113281c0-9.742187 7.902343-17.640625 17.644531-17.640625h2.3125c9.746094 0 17.644531 7.898438 17.644531 17.640625v241.113281c0 9.746094-7.898437 17.644532-17.644531 17.644532zm0 0" fill="#9d4388"/><g fill="#ff87ba"><path d="m196.566406 33.5-.75.753906c-3.121094 3.117188-3.121094 8.171875 0 11.292969 1.558594 1.558594 3.605469 2.339844 5.648438 2.339844 2.046875 0 4.089844-.78125 5.652344-2.339844l.753906-.753906c3.121094-3.117188 3.121094-8.175781 0-11.292969s-8.179688-3.117188-11.304688 0zm0 0"/><path d="m182.273438 131.375-.75.753906c-3.121094 3.117188-3.121094 8.175782 0 11.292969 1.558593 1.558594 3.605468 2.339844 5.648437 2.339844 2.046875 0 4.089844-.78125 5.652344-2.339844l.753906-.753906c3.121094-3.117188 3.121094-8.175781 0-11.292969s-8.183594-3.117188-11.304687 0zm0 0"/><path d="m201.863281 111.800781-.75.753907c-3.121093 3.117187-3.121093 8.171874 0 11.292968 1.558594 1.558594 3.605469 2.339844 5.648438 2.339844s4.089843-.78125 5.652343-2.339844l.753907-.753906c3.121093-3.117188 3.121093-8.175781 0-11.292969-3.121094-3.117187-8.179688-3.117187-11.304688 0zm0 0"/><path d="m216.15625 13.921875-.75.753906c-3.121094 3.121094-3.121094 8.175781 0 11.292969 1.558594 1.558594 3.605469 2.339844 5.648438 2.339844 2.042968 0 4.09375-.78125 5.652343-2.339844l.753907-.75c3.121093-3.121094 3.121093-8.175781 0-11.296875-3.121094-3.117187-8.179688-3.117187-11.304688 0zm0 0"/><path d="m157.386719 72.648438-.753907.753906c-3.121093 3.117187-3.121093 8.175781 0 11.292968 1.5625 1.558594 3.609376 2.339844 5.652344 2.339844 2.046875 0 4.089844-.78125 5.652344-2.339844l.753906-.753906c3.117188-3.117187 3.117188-8.171875 0-11.292968-3.121094-3.117188-8.183594-3.117188-11.304687 0zm0 0"/><path d="m143.089844 170.53125-.753906.753906c-3.117188 3.117188-3.113282 8.175782.007812 11.292969 1.5625 1.558594 3.605469 2.332031 5.648438 2.332031 2.046874 0 4.09375-.777344 5.65625-2.339844l.75-.753906c3.121093-3.121094 3.117187-8.179687-.007813-11.292968-3.121094-3.117188-8.179687-3.117188-11.300781.007812zm0 0"/><path d="m162.679688 150.953125-.753907.753906c-3.117187 3.121094-3.113281 8.179688.007813 11.292969 1.5625 1.558594 3.605468 2.335938 5.648437 2.335938 2.046875 0 4.09375-.78125 5.65625-2.34375l.75-.753907c3.121094-3.121093 3.117188-8.175781-.003906-11.292969-3.125-3.117187-8.183594-3.113281-11.304687.007813zm0 0"/><path d="m176.976562 53.074219-.753906.753906c-3.121094 3.117187-3.121094 8.175781 0 11.292969 1.5625 1.558594 3.609375 2.339844 5.652344 2.339844 2.046875 0 4.089844-.78125 5.652344-2.339844l.753906-.753906c3.121094-3.117188 3.121094-8.175782 0-11.292969-3.121094-3.117188-8.183594-3.117188-11.304688 0zm0 0"/><path d="m221.453125 92.222656-.75.753906c-3.121094 3.121094-3.121094 8.175782 0 11.292969 1.558594 1.558594 3.605469 2.339844 5.648437 2.339844 2.046876 0 4.09375-.78125 5.652344-2.339844l.753906-.75c3.121094-3.121093 3.121094-8.175781 0-11.296875-3.121093-3.117187-8.179687-3.117187-11.304687 0zm0 0"/><path d="m178.535156 241.304688.753906-.753907c3.121094-3.121093 3.121094-8.175781 0-11.292969-3.121093-3.117187-8.179687-3.117187-11.304687 0l-.75.75c-3.121094 3.121094-3.121094 8.175782 0 11.296876 1.558594 1.558593 3.605469 2.335937 5.648437 2.335937 2.046876 0 4.089844-.78125 5.652344-2.335937zm0 0"/><path d="m183.300781 319.460938c2.042969 0 4.089844-.78125 5.652344-2.339844l.75-.753906c3.121094-3.117188 3.121094-8.175782 0-11.292969-3.121094-3.117188-8.179687-3.117188-11.300781 0l-.753906.753906c-3.121094 3.117187-3.121094 8.175781 0 11.292969 1.5625 1.558594 3.605468 2.339844 5.652343 2.339844zm0 0"/><path d="m238.566406 431.441406c2.042969 0 4.089844-.78125 5.648438-2.339844l.753906-.75c3.121094-3.121093 3.121094-8.175781 0-11.296874-3.121094-3.117188-8.179688-3.117188-11.300781 0l-.753907.753906c-3.121093 3.121094-3.121093 8.175781 0 11.292968 1.558594 1.558594 3.605469 2.339844 5.652344 2.339844zm0 0"/><path d="m217.714844 202.152344.753906-.753906c3.121094-3.121094 3.121094-8.175782 0-11.292969-3.125-3.117188-8.183594-3.117188-11.304688 0l-.753906.75c-3.121094 3.121093-3.121094 8.175781 0 11.296875 1.5625 1.558594 3.609375 2.335937 5.652344 2.335937 2.046875 0 4.089844-.777343 5.652344-2.335937zm0 0"/><path d="m222.480469 280.308594c2.046875 0 4.089843-.777344 5.652343-2.335938l.75-.753906c3.121094-3.121094 3.121094-8.175781 0-11.292969-3.121093-3.117187-8.179687-3.117187-11.300781 0l-.753906.75c-3.121094 3.121094-3.121094 8.175781 0 11.296875 1.5625 1.558594 3.605469 2.335938 5.652344 2.335938zm0 0"/><path d="m198.125 221.726562.753906-.753906c3.121094-3.117187 3.121094-8.171875 0-11.292968-3.125-3.117188-8.183594-3.117188-11.304687 0l-.753907.753906c-3.121093 3.117187-3.121093 8.175781 0 11.292968 1.5625 1.558594 3.609376 2.339844 5.652344 2.339844 2.042969 0 4.089844-.78125 5.652344-2.339844zm0 0"/><path d="m137.796875 92.222656-.753906.753906c-3.121094 3.121094-3.121094 8.175782 0 11.292969 1.5625 1.558594 3.609375 2.339844 5.652343 2.339844 2.042969 0 4.089844-.78125 5.648438-2.339844l.753906-.75c3.121094-3.121093 3.121094-8.175781 0-11.296875-3.121094-3.117187-8.179687-3.117187-11.300781 0zm0 0"/><path d="m189.703125 399.96875c3.121094-3.117188 3.121094-8.175781 0-11.292969-3.121094-3.117187-8.179687-3.117187-11.300781 0l-.753906.753907c-3.121094 3.117187-3.121094 8.171874 0 11.292968 1.5625 1.558594 3.605468 2.339844 5.652343 2.339844 2.042969 0 4.089844-.78125 5.648438-2.339844zm0 0"/><path d="m179.792969 490.167969c2.046875 0 4.09375-.777344 5.652343-2.339844l.753907-.75c3.121093-3.121094 3.121093-8.175781 0-11.296875-3.121094-3.117188-8.183594-3.117188-11.304688 0l-.753906.753906c-3.117187 3.121094-3.117187 8.175782 0 11.292969 1.5625 1.5625 3.609375 2.339844 5.652344 2.339844zm0 0"/><path d="m199.382812 470.59375c2.046876 0 4.09375-.78125 5.65625-2.34375l.753907-.753906c3.117187-3.117188 3.117187-8.175782-.007813-11.292969s-8.183594-3.113281-11.300781.007813l-.753906.753906c-3.117188 3.121094-3.117188 8.175781.007812 11.292968 1.558594 1.558594 3.601563 2.335938 5.644531 2.335938zm0 0"/><path d="m228.886719 360.816406c3.121093-3.117187 3.121093-8.171875 0-11.292968-3.125-3.117188-8.183594-3.117188-11.304688 0l-.753906.753906c-3.121094 3.117187-3.121094 8.175781 0 11.292968 1.5625 1.558594 3.609375 2.339844 5.652344 2.339844 2.046875 0 4.089843-.78125 5.652343-2.339844zm0 0"/><path d="m209.296875 380.394531c3.121094-3.121093 3.121094-8.175781 0-11.296875-3.125-3.117187-8.183594-3.117187-11.304687 0l-.753907.753906c-3.121093 3.121094-3.121093 8.175782 0 11.292969 1.5625 1.558594 3.609375 2.339844 5.652344 2.339844s4.089844-.78125 5.652344-2.339844zm0 0"/><path d="m218.972656 451.019531c2.046875 0 4.09375-.78125 5.652344-2.339843l.753906-.753907c3.121094-3.117187 3.121094-8.175781 0-11.292969-3.121094-3.117187-8.179687-3.117187-11.304687 0l-.75.753907c-3.121094 3.117187-3.121094 8.171875 0 11.292969 1.558593 1.558593 3.605469 2.339843 5.648437 2.339843zm0 0"/><path d="m170.113281 419.542969c3.121094-3.117188 3.121094-8.175781 0-11.292969-3.121093-3.117188-8.179687-3.117188-11.300781 0l-.753906.753906c-3.121094 3.117188-3.121094 8.175782 0 11.292969 1.5625 1.558594 3.605468 2.339844 5.652344 2.339844 2.042968 0 4.089843-.78125 5.648437-2.339844zm0 0"/><path d="m128.402344 204.488281c2.042968 0 4.089844-.78125 5.648437-2.339843l.753907-.753907c3.121093-3.117187 3.121093-8.175781 0-11.292969-3.121094-3.117187-8.179688-3.117187-11.300782 0l-.753906.753907c-3.121094 3.117187-3.121094 8.171875 0 11.292969 1.558594 1.558593 3.605469 2.339843 5.652344 2.339843zm0 0"/><path d="m139.355469 280.453125.753906-.753906c3.117187-3.117188 3.117187-8.171875 0-11.292969-3.125-3.117188-8.183594-3.117188-11.304687 0l-.753907.753906c-3.121093 3.117188-3.121093 8.175782 0 11.292969 1.5625 1.558594 3.609375 2.339844 5.652344 2.339844s4.089844-.78125 5.652344-2.339844zm0 0"/><path d="m154.554688 507.40625c1.558593 1.558594 3.605468 2.339844 5.648437 2.339844 2.046875 0 4.09375-.78125 5.652344-2.339844l.753906-.753906c3.121094-3.117188 3.121094-8.175782 0-11.292969s-8.179687-3.117187-11.304687 0l-.753907.753906c-3.117187 3.117188-3.117187 8.171875.003907 11.292969zm0 0"/><path d="m132.488281 13.921875-.75.753906c-3.121093 3.121094-3.121093 8.175781 0 11.292969 1.558594 1.558594 3.605469 2.339844 5.648438 2.339844 2.046875 0 4.089843-.78125 5.652343-2.339844l.753907-.75c3.121093-3.121094 3.121093-8.175781 0-11.296875-3.121094-3.117187-8.179688-3.117187-11.304688 0zm0 0"/><path d="m119.632812 363.800781-.753906.753907c-3.121094 3.117187-3.121094 8.171874 0 11.292968 1.5625 1.558594 3.605469 2.339844 5.652344 2.339844 2.042969 0 4.089844-.78125 5.648438-2.339844l.753906-.753906c3.121094-3.117188 3.121094-8.175781 0-11.292969-3.121094-3.117187-8.179688-3.117187-11.300782 0zm0 0"/><path d="m144.121094 358.609375c2.042968 0 4.089844-.777344 5.648437-2.335937l.753907-.753907c3.121093-3.121093 3.121093-8.175781 0-11.292969-3.121094-3.117187-8.179688-3.117187-11.304688 0l-.75.75c-3.121094 3.121094-3.121094 8.175782 0 11.296876 1.558594 1.558593 3.605469 2.335937 5.652344 2.335937zm0 0"/><path d="m202.890625 299.886719c2.042969 0 4.089844-.78125 5.652344-2.339844l.75-.753906c3.121093-3.117188 3.121093-8.175781 0-11.292969-3.121094-3.117188-8.179688-3.117188-11.300781 0l-.753907.753906c-3.121093 3.117188-3.121093 8.171875 0 11.292969 1.5625 1.558594 3.605469 2.339844 5.652344 2.339844zm0 0"/><path d="m363.886719 33.5-.753907.753906c-3.121093 3.117188-3.121093 8.175782 0 11.292969 1.5625 1.558594 3.605469 2.339844 5.652344 2.339844 2.042969 0 4.089844-.78125 5.648438-2.339844l.753906-.753906c3.121094-3.117188 3.121094-8.175781 0-11.292969s-8.179688-3.117188-11.300781 0zm0 0"/><path d="m354.710938 128.898438-.753907.753906c-3.117187 3.121094-3.113281 8.179687.007813 11.292968 1.5625 1.558594 3.605468 2.335938 5.648437 2.335938 2.046875 0 4.09375-.78125 5.652344-2.34375l.753906-.753906c3.121094-3.117188 3.117188-8.175782-.007812-11.292969s-8.179688-3.109375-11.300781.007813zm0 0"/><path d="m393.140625 90.496094c-3.121094 3.121094-3.121094 8.175781 0 11.296875 1.5625 1.558593 3.609375 2.339843 5.652344 2.339843s4.089843-.78125 5.652343-2.339843l.75-.753907c3.121094-3.117187 3.121094-8.175781 0-11.292968-3.121093-3.117188-8.179687-3.117188-11.300781 0zm0 0"/><path d="m374.300781 109.324219-.753906.753906c-3.117187 3.121094-3.113281 8.179687.007813 11.292969 1.5625 1.558594 3.605468 2.335937 5.648437 2.335937 2.046875 0 4.09375-.78125 5.65625-2.34375l.75-.753906c3.121094-3.121094 3.117187-8.175781-.007813-11.292969-3.121093-3.117187-8.179687-3.113281-11.300781.007813zm0 0"/><path d="m324.703125 72.648438-.75.753906c-3.121094 3.121094-3.121094 8.175781 0 11.292968 1.558594 1.5625 3.605469 2.339844 5.648437 2.339844 2.046876 0 4.09375-.777344 5.652344-2.339844l.753906-.75c3.121094-3.121093 3.121094-8.175781 0-11.296874-3.121093-3.117188-8.179687-3.117188-11.304687 0zm0 0"/><path d="m335.121094 148.476562-.753906.753907c-3.117188 3.121093-3.113282 8.175781.007812 11.292969 1.5625 1.558593 3.605469 2.335937 5.648438 2.335937 2.046874 0 4.09375-.78125 5.652343-2.34375l.753907-.753906c3.121093-3.121094 3.117187-8.175781-.007813-11.292969-3.121094-3.117188-8.179687-3.113281-11.300781.007812zm0 0"/><path d="m344.296875 53.074219-.753906.753906c-3.121094 3.117187-3.121094 8.175781 0 11.292969 1.558593 1.558594 3.605469 2.339844 5.652343 2.339844 2.042969 0 4.089844-.78125 5.648438-2.339844l.753906-.753906c3.121094-3.117188 3.121094-8.171876 0-11.292969-3.121094-3.117188-8.179687-3.117188-11.300781 0zm0 0"/><path d="m481.292969 434.578125c-.335938-.578125-.746094-1.128906-1.242188-1.625-3.125-3.117187-8.183593-3.117187-11.304687 0l-.753906.75c-3.121094 3.121094-3.121094 8.175781 0 11.296875 1.5625 1.558594 3.609374 2.339844 5.652343 2.339844 2.046875 0 4.089844-.78125 5.652344-2.339844l.75-.753906c.5-.496094.90625-1.046875 1.246094-1.628906zm0 0"/><path d="m114.460938 221.722656.753906-.75c3.121094-3.121094 3.121094-8.175781 0-11.296875-2.800782-2.796875-7.15625-3.074219-10.277344-.855469v14.238282c1.203125.664062 2.535156 1.003906 3.871094 1.003906 2.046875 0 4.09375-.78125 5.652344-2.339844zm0 0"/><path d="m110.589844 395.421875.753906-.75c3.121094-3.121094 3.121094-8.175781 0-11.296875-1.753906-1.75-4.117188-2.515625-6.40625-2.300781v16.6875c2.046875 0 4.09375-.78125 5.652344-2.339844zm0 0"/><path d="m315.535156 168.046875-.753906.753906c-3.121094 3.121094-3.121094 8.175781 0 11.292969 1.5625 1.558594 3.605469 2.339844 5.652344 2.339844 2.042968 0 4.089844-.78125 5.648437-2.339844l.753907-.75c3.121093-3.121094 3.121093-8.175781 0-11.296875-3.121094-3.117187-8.179688-3.117187-11.300782 0zm0 0"/><path d="m123.449219 45.546875.753906-.753906c3.121094-3.117188 3.121094-8.175781 0-11.292969-3.125-3.117188-8.183594-3.117188-11.304687 0l-.753907.753906c-3.121093 3.117188-3.121093 8.171875 0 11.292969 1.5625 1.558594 3.609375 2.339844 5.652344 2.339844 2.046875-.003907 4.089844-.78125 5.652344-2.339844zm0 0"/><path d="m128.757812 123.847656.75-.753906c3.121094-3.117188 3.121094-8.175781 0-11.292969-3.121093-3.117187-8.179687-3.117187-11.300781 0l-.753906.753907c-3.121094 3.117187-3.121094 8.171874 0 11.292968 1.5625 1.558594 3.605469 2.339844 5.652344 2.339844 2.042969-.003906 4.089843-.78125 5.652343-2.339844zm0 0"/><path d="m383.472656 13.921875-.75.753906c-3.121094 3.121094-3.121094 8.175781 0 11.292969 1.558594 1.558594 3.605469 2.339844 5.648438 2.339844 2.046875 0 4.09375-.78125 5.652344-2.339844l.753906-.75c3.121094-3.121094 3.121094-8.175781 0-11.296875-3.121094-3.117187-8.179688-3.117187-11.304688 0zm0 0"/><path d="m285.527344 111.800781-.753906.753907c-3.121094 3.121093-3.121094 8.175781 0 11.292968 1.558593 1.558594 3.605468 2.339844 5.648437 2.339844 2.046875 0 4.09375-.78125 5.652344-2.339844l.753906-.75c3.121094-3.121094 3.121094-8.175781 0-11.296875-3.121094-3.117187-8.179687-3.117187-11.300781 0zm0 0"/><path d="m246.34375 150.953125-.753906.753906c-3.121094 3.117188-3.121094 8.175781 0 11.292969 1.5625 1.558594 3.609375 2.339844 5.652344 2.339844 2.046874 0 4.089843-.78125 5.652343-2.339844l.753907-.753906c3.117187-3.117188 3.117187-8.175782 0-11.292969-3.121094-3.117187-8.183594-3.117187-11.304688 0zm0 0"/><path d="m237.171875 246.347656-.753906.753906c-3.121094 3.121094-3.121094 8.175782 0 11.292969 1.5625 1.558594 3.609375 2.339844 5.652343 2.339844 2.042969 0 4.089844-.78125 5.652344-2.339844l.75-.75c3.121094-3.121093 3.121094-8.175781 0-11.296875-3.117187-3.117187-8.179687-3.117187-11.300781 0zm0 0"/><path d="m260.636719 53.074219-.753907.753906c-3.121093 3.117187-3.121093 8.175781 0 11.292969 1.5625 1.558594 3.605469 2.339844 5.652344 2.339844 2.042969 0 4.089844-.78125 5.648438-2.339844l.753906-.753906c3.121094-3.117188 3.121094-8.175782 0-11.292969-3.121094-3.117188-8.179688-3.117188-11.300781 0zm0 0"/><path d="m226.753906 170.527344-.75.753906c-3.121094 3.121094-3.121094 8.175781 0 11.292969 1.558594 1.5625 3.605469 2.339843 5.648438 2.339843 2.046875 0 4.09375-.777343 5.652344-2.339843l.753906-.75c3.121094-3.121094 3.121094-8.175781 0-11.296875-3.121094-3.117188-8.179688-3.117188-11.304688 0zm0 0"/><path d="m305.121094 92.222656-.753906.753906c-3.125 3.117188-3.128907 8.171876-.007813 11.292969 1.558594 1.5625 3.605469 2.34375 5.652344 2.34375s4.089843-.78125 5.648437-2.335937l.753906-.753906c3.125-3.117188 3.125-8.171876.007813-11.292969-3.121094-3.121094-8.179687-3.121094-11.300781-.007813zm0 0"/><path d="m163.710938 339.035156c2.042968 0 4.089843-.78125 5.648437-2.339844l.753906-.753906c3.121094-3.117187 3.121094-8.171875 0-11.292968-3.121093-3.117188-8.179687-3.117188-11.304687 0l-.75.753906c-3.121094 3.117187-3.121094 8.175781 0 11.292968 1.5625 1.5625 3.605468 2.339844 5.652344 2.339844zm0 0"/><path d="m256.761719 226.773438-.75.753906c-3.121094 3.117187-3.121094 8.171875 0 11.292968 1.558593 1.558594 3.605469 2.339844 5.648437 2.339844 2.046875 0 4.09375-.78125 5.652344-2.339844l.753906-.753906c3.121094-3.117187 3.121094-8.175781 0-11.292968-3.121094-3.117188-8.183594-3.117188-11.304687 0zm0 0"/><path d="m241.042969 72.648438-.75.753906c-3.121094 3.117187-3.121094 8.175781 0 11.292968 1.558593 1.558594 3.605469 2.339844 5.648437 2.339844 2.046875 0 4.09375-.78125 5.652344-2.339844l.753906-.753906c3.121094-3.117187 3.121094-8.171875 0-11.292968-3.121094-3.117188-8.179687-3.117188-11.304687 0zm0 0"/><path d="m299.816406 13.921875-.753906.753906c-3.121094 3.121094-3.121094 8.175781 0 11.292969 1.5625 1.558594 3.605469 2.339844 5.652344 2.339844 2.042968 0 4.089844-.78125 5.648437-2.339844l.753907-.75c3.121093-3.121094 3.121093-8.175781 0-11.296875-3.121094-3.117187-8.179688-3.117187-11.300782 0zm0 0"/><path d="m295.945312 187.621094-.753906.753906c-3.121094 3.121094-3.121094 8.175781 0 11.296875 1.558594 1.558594 3.605469 2.335937 5.648438 2.335937 2.046875 0 4.09375-.777343 5.652344-2.335937l.753906-.753906c3.121094-3.121094 3.121094-8.175781 0-11.296875-3.121094-3.113282-8.179688-3.113282-11.300782 0zm0 0"/><path d="m159.699219 260.125c3.121093-3.117188 3.121093-8.175781 0-11.292969-3.121094-3.117187-8.183594-3.117187-11.304688 0l-.753906.753907c-3.117187 3.117187-3.117187 8.171874 0 11.292968 1.5625 1.558594 3.609375 2.339844 5.652344 2.339844 2.046875 0 4.089843-.78125 5.652343-2.339844zm0 0"/><path d="m280.226562 33.5-.753906.753906c-3.121094 3.117188-3.121094 8.171875 0 11.292969 1.5625 1.558594 3.605469 2.339844 5.652344 2.339844 2.042969 0 4.089844-.78125 5.648438-2.339844l.753906-.753906c3.121094-3.117188 3.121094-8.175781 0-11.292969s-8.179688-3.117188-11.300782 0zm0 0"/><path d="m276.351562 207.199219-.75.75c-3.121093 3.121093-3.121093 8.175781 0 11.296875 1.558594 1.558594 3.605469 2.339844 5.648438 2.339844 2.046875 0 4.09375-.78125 5.652344-2.339844l.753906-.753906c3.121094-3.121094 3.121094-8.175782 0-11.292969-3.121094-3.117188-8.179688-3.117188-11.304688 0zm0 0"/><path d="m265.933594 131.378906-.753906.75c-3.121094 3.121094-3.121094 8.175782 0 11.296875 1.5625 1.558594 3.609374 2.335938 5.652343 2.335938 2.046875 0 4.089844-.777344 5.652344-2.335938l.753906-.753906c3.121094-3.121094 3.121094-8.175781 0-11.292969-3.121093-3.117187-8.183593-3.117187-11.304687 0zm0 0"/><path d="m272.84375 461.507812-.753906.753907c-3.121094 3.117187-3.121094 8.171875 0 11.292969 1.5625 1.558593 3.609375 2.339843 5.652344 2.339843 2.042968 0 4.089843-.78125 5.648437-2.339843l.753906-.753907c3.121094-3.117187 3.121094-8.175781 0-11.292969-3.121093-3.117187-8.179687-3.117187-11.300781 0zm0 0"/><path d="m460.460938 285.328125c-3.125-3.113281-8.183594-3.113281-11.304688 0l-.753906.753906c-3.121094 3.121094-3.121094 8.175781 0 11.296875 1.5625 1.558594 3.609375 2.335938 5.652344 2.335938 2.042968 0 4.089843-.777344 5.652343-2.335938l.75-.753906c3.121094-3.121094 3.121094-8.175781.003907-11.296875zm0 0"/><path d="m440.871094 221.300781c-3.125-3.117187-8.183594-3.117187-11.304688 0l-.753906.753907c-3.121094 3.117187-3.121094 8.175781 0 11.292968 1.5625 1.558594 3.609375 2.339844 5.652344 2.339844 2.042968 0 4.089844-.78125 5.652344-2.339844l.75-.753906c3.125-3.117188 3.125-8.171875.003906-11.292969zm0 0"/><path d="m444.378906 145.488281c3.121094-3.117187 3.121094-8.171875 0-11.292969-3.121094-3.117187-8.179687-3.117187-11.304687 0l-.75.753907c-3.121094 3.117187-3.121094 8.175781 0 11.292969 1.558593 1.558593 3.605469 2.339843 5.648437 2.339843 2.046875 0 4.09375-.78125 5.652344-2.339843zm0 0"/><path d="m449.15625 368.921875-.753906.753906c-3.121094 3.121094-3.121094 8.175781 0 11.292969 1.5625 1.558594 3.609375 2.339844 5.652344 2.339844 2.042968 0 4.089843-.78125 5.652343-2.339844l.75-.75c3.121094-3.121094 3.121094-8.175781 0-11.296875-3.121093-3.117187-8.179687-3.117187-11.300781 0zm0 0"/><path d="m460.460938 201.726562c-3.125-3.117187-8.183594-3.117187-11.304688 0l-.753906.75c-3.121094 3.121094-3.121094 8.175782 0 11.296876 1.5625 1.558593 3.609375 2.335937 5.652344 2.335937 2.042968 0 4.089843-.777344 5.652343-2.335937l.75-.753907c3.121094-3.121093 3.121094-8.175781.003907-11.292969zm0 0"/><path d="m463.96875 31.019531c-3.121094-3.117187-8.179688-3.117187-11.300781 0l-.753907.753907c-3.121093 3.117187-3.121093 8.175781 0 11.292968 1.558594 1.558594 3.605469 2.339844 5.652344 2.339844 2.042969 0 4.089844-.78125 5.648438-2.339844l.753906-.753906c3.121094-3.117188 3.121094-8.171875 0-11.292969zm0 0"/><path d="m463.96875 125.914062c3.121094-3.117187 3.121094-8.175781 0-11.292968-3.121094-3.117188-8.179688-3.117188-11.300781 0l-.753907.753906c-3.121093 3.117188-3.121093 8.175781 0 11.292969 1.558594 1.558593 3.605469 2.339843 5.652344 2.339843 2.042969 0 4.089844-.78125 5.648438-2.339843zm0 0"/><path d="m440.867188 388.5c-3.121094-3.117188-8.179688-3.117188-11.300782 0l-.753906.753906c-3.121094 3.117188-3.121094 8.171875 0 11.292969 1.5625 1.558594 3.605469 2.339844 5.652344 2.339844 2.042968 0 4.089844-.78125 5.648437-2.339844l.753907-.753906c3.121093-3.117188 3.121093-8.175781 0-11.292969zm0 0"/><path d="m418.382812 84.554688c2.046876 0 4.089844-.777344 5.652344-2.335938l.753906-.753906c3.121094-3.121094 3.121094-8.175782 0-11.292969-3.125-3.117187-8.183593-3.117187-11.304687 0l-.753906.75c-3.121094 3.121094-3.121094 8.175781 0 11.296875 1.5625 1.558594 3.609375 2.335938 5.652343 2.335938zm0 0"/><path d="m440.867188 304.90625c-3.121094-3.117188-8.179688-3.117188-11.300782 0l-.753906.75c-3.121094 3.121094-3.121094 8.175781 0 11.296875 1.5625 1.558594 3.605469 2.335937 5.652344 2.335937 2.042968 0 4.089844-.777343 5.648437-2.335937l.753907-.753906c3.121093-3.121094 3.121093-8.175781 0-11.292969zm0 0"/><path d="m421.28125 240.875c-3.125-3.117188-8.183594-3.117188-11.304688 0l-.753906.753906c-3.121094 3.117188-3.121094 8.175782 0 11.292969 1.5625 1.558594 3.609375 2.339844 5.652344 2.339844s4.089844-.78125 5.652344-2.339844l.75-.75c3.125-3.121094 3.125-8.175781.003906-11.296875zm0 0"/><path d="m424.789062 165.066406c3.121094-3.121094 3.121094-8.175781 0-11.292968-3.121093-3.117188-8.179687-3.117188-11.304687 0l-.75.75c-3.121094 3.121093-3.121094 8.175781 0 11.296874 1.558594 1.558594 3.605469 2.335938 5.648437 2.335938 2.046876 0 4.089844-.777344 5.652344-2.335938zm0 0"/><path d="m429.566406 472.101562-.753906.753907c-3.121094 3.121093-3.121094 8.175781 0 11.292969 1.5625 1.5625 3.605469 2.339843 5.652344 2.339843 2.042968 0 4.089844-.777343 5.648437-2.339843l.753907-.75c3.121093-3.121094 3.121093-8.175782 0-11.296876-3.121094-3.117187-8.179688-3.117187-11.300782 0zm0 0"/><path d="m432.324219 51.347656c-3.121094 3.121094-3.121094 8.175782 0 11.292969 1.558593 1.558594 3.605469 2.339844 5.648437 2.339844 2.046875 0 4.09375-.78125 5.652344-2.339844l.753906-.75c3.121094-3.121094 3.121094-8.175781 0-11.296875-3.125-3.117188-8.183594-3.117188-11.304687 0zm0 0"/><path d="m110.589844 479.023438.753906-.753907c3.121094-3.117187 3.121094-8.175781 0-11.292969-1.753906-1.75-4.117188-2.515624-6.40625-2.300781v15.261719c0 .476562.015625.949219.035156 1.421875 2.035156-.007813 4.066406-.789063 5.617188-2.335937zm0 0"/><path d="m323.328125 505.949219c-3.121094-3.117188-8.179687-3.117188-11.304687 0l-.40625.40625c-1.558594 1.558593-2.339844 3.601562-2.339844 5.644531h16.371094c.109374-2.175781-.660157-4.386719-2.320313-6.050781zm0 0"/><path d="m459.707031 464.574219.75-.753907c3.121094-3.117187 3.121094-8.175781 0-11.292968-3.121093-3.117188-8.179687-3.117188-11.300781 0l-.753906.753906c-3.121094 3.117188-3.121094 8.171875 0 11.292969 1.5625 1.558593 3.605468 2.339843 5.652344 2.339843 2.042968 0 4.089843-.78125 5.652343-2.339843zm0 0"/><path d="m244.964844 511.953125c3.121094-3.121094 3.121094-8.175781 0-11.296875-3.121094-3.117188-8.179688-3.117188-11.300782 0l-.753906.753906c-2.898437 2.894532-3.101562 7.457032-.621094 10.589844h12.628907zm0 0"/><path d="m248.476562 341.242188c3.121094-3.117188 3.121094-8.175782 0-11.292969-3.125-3.117188-8.183593-3.117188-11.304687 0l-.753906.753906c-3.121094 3.117187-3.121094 8.175781 0 11.292969 1.5625 1.558594 3.609375 2.339844 5.652343 2.339844 2.042969 0 4.089844-.78125 5.652344-2.339844zm0 0"/><path d="m480.050781 182.148438c-3.125-3.117188-8.183593-3.117188-11.304687 0l-.753906.753906c-3.121094 3.117187-3.121094 8.175781 0 11.292968 1.5625 1.558594 3.609374 2.339844 5.652343 2.339844 2.046875 0 4.089844-.78125 5.652344-2.339844l.75-.753906c.5-.496094.90625-1.046875 1.246094-1.625v-8.042968c-.335938-.578126-.746094-1.128907-1.242188-1.625zm0 0"/><path d="m402.3125 6.394531c1.558594 1.558594 3.605469 2.339844 5.648438 2.339844 2.046874 0 4.09375-.78125 5.652343-2.339844l.753907-.753906c1.558593-1.558594 2.339843-3.597656 2.339843-5.640625h-16.703125c-.210937 2.285156.554688 4.644531 2.308594 6.394531zm0 0"/><path d="m144.121094 442.210938c2.042968 0 4.089844-.78125 5.648437-2.339844l.753907-.753906c3.121093-3.117188 3.121093-8.171876 0-11.292969-3.121094-3.117188-8.179688-3.117188-11.304688 0l-.75.753906c-3.121094 3.117187-3.121094 8.175781 0 11.292969 1.558594 1.558594 3.605469 2.339844 5.652344 2.339844zm0 0"/><path d="m480.050781 349.347656c-3.125-3.117187-8.183593-3.117187-11.304687 0l-.753906.753906c-3.121094 3.117188-3.121094 8.175782 0 11.292969 1.5625 1.558594 3.609374 2.339844 5.652343 2.339844 2.046875 0 4.089844-.78125 5.652344-2.339844l.75-.753906c.5-.496094.90625-1.046875 1.246094-1.625v-8.042969c-.335938-.578125-.746094-1.128906-1.242188-1.625zm0 0"/><path d="m149.023438 0c-.214844 2.285156.550781 4.644531 2.304687 6.394531 1.558594 1.558594 3.605469 2.339844 5.648437 2.339844 2.046876 0 4.09375-.78125 5.652344-2.339844l.753906-.753906c1.558594-1.558594 2.335938-3.597656 2.339844-5.640625zm0 0"/><path d="m124.53125 461.785156c2.042969 0 4.089844-.777344 5.648438-2.339844l.753906-.75c3.121094-3.121093 3.121094-8.175781 0-11.296874-3.121094-3.117188-8.179688-3.117188-11.304688 0l-.75.753906c-3.121094 3.121094-3.121094 8.175781 0 11.292968 1.558594 1.5625 3.605469 2.339844 5.652344 2.339844zm0 0"/><path d="m318.652344 6.394531c1.5625 1.558594 3.605468 2.339844 5.652344 2.339844 2.042968 0 4.089843-.78125 5.648437-2.339844l.753906-.753906c1.558594-1.558594 2.339844-3.597656 2.339844-5.640625h-16.699219c-.214844 2.285156.554688 4.644531 2.304688 6.394531zm0 0"/><path d="m234.996094 6.394531c1.558594 1.558594 3.605468 2.339844 5.648437 2.339844 2.046875 0 4.09375-.78125 5.652344-2.339844l.753906-.753906c1.558594-1.558594 2.335938-3.597656 2.339844-5.640625h-16.703125c-.210938 2.285156.554688 4.644531 2.308594 6.394531zm0 0"/><path d="m421.277344 324.480469c-3.121094-3.117188-8.179688-3.117188-11.300782 0l-.753906.753906c-3.121094 3.117187-3.121094 8.171875 0 11.292969 1.5625 1.558594 3.605469 2.339844 5.652344 2.339844 2.042969 0 4.089844-.78125 5.648438-2.339844l.753906-.753906c3.121094-3.117188 3.121094-8.171876 0-11.292969zm0 0"/><path d="m120.519531 299.277344c3.121094-3.121094 3.121094-8.175782 0-11.292969-3.121093-3.117187-8.183593-3.117187-11.304687 0l-.753906.75c-3.121094 3.121094-3.121094 8.175781 0 11.296875 1.5625 1.558594 3.609374 2.335938 5.652343 2.335938 2.046875 0 4.089844-.777344 5.652344-2.335938zm0 0"/><path d="m480.050781 265.753906c-3.125-3.117187-8.183593-3.117187-11.304687 0l-.753906.753906c-3.121094 3.117188-3.121094 8.175782 0 11.292969 1.5625 1.558594 3.609374 2.339844 5.652343 2.339844 2.046875 0 4.089844-.78125 5.652344-2.339844l.75-.753906c.5-.496094.90625-1.046875 1.246094-1.625v-8.042969c-.335938-.578125-.746094-1.128906-1.242188-1.625zm0 0"/><path d="m323.328125 338.753906c-3.121094-3.117187-8.179687-3.117187-11.300781 0l-.753906.753906c-3.121094 3.121094-3.121094 8.175782 0 11.292969 1.5625 1.558594 3.605468 2.339844 5.652343 2.339844 2.042969 0 4.089844-.78125 5.648438-2.339844l.753906-.75c3.121094-3.121093 3.121094-8.175781 0-11.296875zm0 0"/><path d="m307.246094 282.515625c3.121094-3.117187 3.121094-8.171875 0-11.292969-3.121094-3.117187-8.179688-3.117187-11.300782 0l-.753906.753906c-3.121094 3.117188-3.121094 8.175782 0 11.292969 1.558594 1.558594 3.605469 2.339844 5.648438 2.339844 2.046875 0 4.09375-.78125 5.652344-2.339844zm0 0"/><path d="m292.433594 441.933594-.753906.75c-3.121094 3.121094-3.121094 8.175781 0 11.296875 1.5625 1.558593 3.609374 2.335937 5.652343 2.335937s4.089844-.777344 5.652344-2.335937l.75-.753907c3.121094-3.121093 3.121094-8.175781 0-11.292968-3.121094-3.117188-8.179687-3.117188-11.300781 0zm0 0"/><path d="m312.023438 422.355469-.75.753906c-3.121094 3.121094-3.121094 8.175781 0 11.292969 1.558593 1.5625 3.605468 2.339844 5.648437 2.339844s4.089844-.777344 5.652344-2.339844l.753906-.75c3.121094-3.121094 3.121094-8.175782 0-11.296875-3.121094-3.117188-8.183594-3.117188-11.304687 0zm0 0"/><path d="m326.835938 262.941406c3.121093-3.117187 3.121093-8.175781 0-11.292968-3.121094-3.117188-8.179688-3.117188-11.300782 0l-.753906.753906c-3.121094 3.117187-3.121094 8.171875 0 11.292968 1.5625 1.558594 3.605469 2.339844 5.652344 2.339844 2.042968 0 4.089844-.78125 5.648437-2.339844zm0 0"/><path d="m331.613281 486.375-.75.753906c-3.121093 3.117188-3.121093 8.175782 0 11.292969 1.558594 1.558594 3.605469 2.339844 5.648438 2.339844s4.089843-.78125 5.652343-2.339844l.753907-.753906c3.121093-3.117188 3.121093-8.175781 0-11.292969-3.121094-3.117188-8.179688-3.117188-11.304688 0zm0 0"/><path d="m342.917969 402.78125c-3.121094-3.117188-8.179688-3.117188-11.304688 0l-.75.753906c-3.121093 3.117188-3.121093 8.175782 0 11.292969 1.558594 1.558594 3.605469 2.339844 5.648438 2.339844s4.089843-.78125 5.652343-2.339844l.753907-.753906c3.121093-3.117188 3.121093-8.171875 0-11.292969zm0 0"/><path d="m264.554688 397.476562c-3.125-3.117187-8.179688-3.113281-11.300782.007813l-.753906.753906c-3.117188 3.121094-3.117188 8.175781.007812 11.292969 1.5625 1.558594 3.605469 2.335938 5.648438 2.335938 2.046875 0 4.09375-.78125 5.652344-2.34375l.753906-.753907c3.121094-3.121093 3.113281-8.175781-.007812-11.292969zm0 0"/><path d="m303.738281 358.328125c-3.121093-3.113281-8.179687-3.113281-11.300781 0l-.753906.753906c-3.121094 3.121094-3.121094 8.175781 0 11.296875 1.5625 1.558594 3.605468 2.335938 5.652344 2.335938 2.042968 0 4.089843-.777344 5.648437-2.335938l.753906-.753906c3.121094-3.121094 3.121094-8.175781 0-11.296875zm0 0"/><path d="m268.066406 321.667969c3.121094-3.117188 3.121094-8.175781 0-11.292969s-8.179687-3.117188-11.304687 0l-.75.753906c-3.121094 3.117188-3.121094 8.171875 0 11.292969 1.558593 1.558594 3.605469 2.339844 5.648437 2.339844 2.046875 0 4.09375-.78125 5.652344-2.339844zm0 0"/><path d="m342.917969 319.179688c-3.121094-3.117188-8.179688-3.117188-11.300781 0l-.753907.75c-3.121093 3.121093-3.121093 8.175781 0 11.296874 1.5625 1.558594 3.605469 2.335938 5.652344 2.335938 2.042969 0 4.089844-.777344 5.648437-2.335938l.753907-.753906c3.121093-3.121094 3.121093-8.175781 0-11.292968zm0 0"/><path d="m253.253906 481.082031-.753906.753907c-3.121094 3.117187-3.121094 8.175781 0 11.292968 1.5625 1.558594 3.609375 2.339844 5.652344 2.339844 2.042968 0 4.089844-.78125 5.648437-2.339844l.753907-.753906c3.121093-3.117188 3.121093-8.175781 0-11.292969-3.121094-3.117187-8.179688-3.117187-11.300782 0zm0 0"/><path d="m287.65625 302.09375c3.121094-3.121094 3.121094-8.175781 0-11.296875-3.121094-3.117187-8.179688-3.117187-11.304688 0l-.75.753906c-3.121093 3.121094-3.121093 8.175781 0 11.292969 1.558594 1.558594 3.605469 2.339844 5.648438 2.339844 2.046875 0 4.09375-.78125 5.652344-2.339844zm0 0"/><path d="m284.148438 377.90625c-3.121094-3.117188-8.179688-3.117188-11.300782 0l-.753906.75c-3.121094 3.121094-3.121094 8.175781 0 11.296875 1.5625 1.558594 3.605469 2.335937 5.652344 2.335937 2.042968 0 4.089844-.777343 5.648437-2.335937l.753907-.753906c3.121093-3.121094 3.121093-8.175781 0-11.292969zm0 0"/><path d="m401.691406 260.453125c-3.125-3.117187-8.183594-3.117187-11.304687 0l-.753907.75c-3.121093 3.121094-3.121093 8.175781 0 11.296875 1.5625 1.558594 3.609376 2.339844 5.652344 2.339844 2.042969 0 4.089844-.78125 5.648438-2.339844l.753906-.753906c3.121094-3.121094 3.121094-8.175782.003906-11.292969zm0 0"/><path d="m401.6875 344.054688c-3.121094-3.117188-8.179688-3.117188-11.300781 0l-.753907.753906c-3.121093 3.121094-3.121093 8.175781 0 11.292968 1.5625 1.558594 3.605469 2.339844 5.652344 2.339844 2.042969 0 4.089844-.78125 5.648438-2.339844l.753906-.75c3.121094-3.121093 3.121094-8.175781 0-11.296874zm0 0"/><path d="m390.386719 427.648438-.753907.753906c-3.121093 3.117187-3.121093 8.175781 0 11.292968 1.5625 1.558594 3.605469 2.339844 5.652344 2.339844 2.042969 0 4.089844-.78125 5.648438-2.339844l.753906-.753906c3.121094-3.117187 3.121094-8.171875 0-11.292968-3.121094-3.117188-8.179688-3.117188-11.300781 0zm0 0"/><path d="m385.609375 204.214844c3.117187-3.117188 3.117187-8.175782 0-11.292969-3.125-3.117187-8.183594-3.117187-11.304687 0l-.753907.753906c-3.121093 3.117188-3.121093 8.175781 0 11.292969 1.5625 1.558594 3.609375 2.339844 5.652344 2.339844s4.089844-.78125 5.648437-2.339844zm0 0"/><path d="m421.277344 408.074219c-3.121094-3.117188-8.179688-3.117188-11.300782 0l-.753906.753906c-3.121094 3.117187-3.121094 8.175781 0 11.292969 1.5625 1.558594 3.605469 2.339844 5.652344 2.339844 2.042969 0 4.089844-.78125 5.648438-2.339844l.753906-.753906c3.121094-3.117188 3.121094-8.175782 0-11.292969zm0 0"/><path d="m409.976562 491.679688-.753906.75c-3.121094 3.121093-3.121094 8.175781 0 11.296874 1.5625 1.558594 3.605469 2.335938 5.652344 2.335938 2.042969 0 4.089844-.777344 5.648438-2.335938l.753906-.753906c3.121094-3.121094 3.121094-8.175781 0-11.292968-3.121094-3.117188-8.179688-3.117188-11.300782 0zm0 0"/><path d="m382.097656 280.027344c-3.121094-3.117188-8.179687-3.117188-11.300781 0l-.753906.753906c-3.121094 3.117188-3.121094 8.175781 0 11.292969 1.5625 1.558593 3.609375 2.339843 5.652343 2.339843 2.042969 0 4.089844-.78125 5.648438-2.339843l.753906-.753907c3.121094-3.117187 3.121094-8.171874 0-11.292968zm0 0"/><path d="m405.199219 184.640625c3.121093-3.117187 3.121093-8.175781 0-11.292969-3.121094-3.117187-8.183594-3.117187-11.304688 0l-.753906.753906c-3.117187 3.117188-3.117187 8.171876 0 11.292969 1.5625 1.558594 3.609375 2.339844 5.652344 2.339844 2.046875 0 4.089843-.78125 5.652343-2.339844zm0 0"/><path d="m351.203125 466.800781-.75.753907c-3.121094 3.117187-3.121094 8.171874 0 11.292968 1.558594 1.558594 3.605469 2.339844 5.648437 2.339844 2.046876 0 4.09375-.78125 5.652344-2.339844l.753906-.753906c3.121094-3.117188 3.121094-8.175781 0-11.292969-3.121093-3.117187-8.179687-3.117187-11.304687 0zm0 0"/><path d="m346.425781 243.367188c3.121094-3.121094 3.121094-8.175782 0-11.292969-3.121093-3.117188-8.179687-3.117188-11.300781 0l-.753906.75c-3.121094 3.121093-3.121094 8.175781 0 11.296875 1.5625 1.558594 3.605468 2.339844 5.652344 2.339844 2.042968 0 4.089843-.78125 5.648437-2.339844zm0 0"/><path d="m362.507812 299.601562c-3.121093-3.117187-8.179687-3.117187-11.300781 0l-.753906.753907c-3.121094 3.121093-3.121094 8.175781 0 11.292969 1.5625 1.5625 3.605469 2.339843 5.652344 2.339843 2.042969 0 4.089843-.777343 5.648437-2.339843l.753906-.75c3.121094-3.121094 3.121094-8.175782 0-11.296876zm0 0"/><path d="m362.507812 383.207031c-3.121093-3.117187-8.179687-3.117187-11.304687 0l-.75.753907c-3.121094 3.117187-3.121094 8.171874 0 11.292968 1.558594 1.558594 3.605469 2.339844 5.648437 2.339844 2.046876 0 4.09375-.78125 5.652344-2.339844l.753906-.753906c3.121094-3.117188 3.121094-8.175781 0-11.292969zm0 0"/><path d="m382.097656 363.632812c-3.121094-3.117187-8.179687-3.117187-11.304687 0l-.75.75c-3.121094 3.121094-3.121094 8.175782 0 11.296876 1.558593 1.558593 3.605469 2.335937 5.648437 2.335937 2.046875 0 4.09375-.777344 5.652344-2.335937l.753906-.753907c3.121094-3.121093 3.121094-8.175781 0-11.292969zm0 0"/><path d="m366.015625 223.789062c3.121094-3.117187 3.121094-8.171874 0-11.292968-3.121094-3.117188-8.179687-3.117188-11.300781 0l-.753906.753906c-3.121094 3.117188-3.121094 8.175781 0 11.292969 1.5625 1.558593 3.609374 2.339843 5.652343 2.339843s4.089844-.78125 5.648438-2.339843zm0 0"/><path d="m370.792969 447.222656-.75.753906c-3.121094 3.121094-3.121094 8.175782 0 11.292969 1.558593 1.558594 3.605469 2.339844 5.648437 2.339844 2.046875 0 4.09375-.78125 5.652344-2.339844l.753906-.75c3.121094-3.121093 3.121094-8.175781 0-11.296875-3.121094-3.117187-8.179687-3.117187-11.304687 0zm0 0"/></g></svg>