<svg width="77" height="35" viewBox="0 0 77 35" fill="none" xmlns="http://www.w3.org/2000/svg">
<path d="M28.1153 6.92C24.3446 5.05333 21.3113 4.12 19.0153 4.12C16.7193 4.12 14.7966 4.77333 13.2473 6.08C11.7726 7.33067 11.0353 8.67467 11.0353 10.112C11.0353 10.8587 11.3059 11.4 11.8473 11.736C12.5753 12.1467 13.2659 12.352 13.9193 12.352C14.1619 12.352 14.4046 12.324 14.6473 12.268C15.5059 12.0627 16.2339 11.7173 16.8313 11.232C17.4286 10.7467 17.7273 10.3547 17.7273 10.056C17.7273 9.75733 17.8113 9.552 17.9793 9.44C18.1659 9.328 18.2593 9.36533 18.2593 9.552C18.2593 9.664 18.2313 9.79467 18.1753 9.944C17.7833 11.2693 16.8686 12.1747 15.4313 12.66C14.8153 12.8653 14.1806 12.968 13.5273 12.968C12.8739 12.968 12.2299 12.772 11.5953 12.38C10.4006 11.708 9.80325 10.6813 9.80325 9.3C9.80325 7.63867 10.5686 6.12667 12.0993 4.764C13.6299 3.40133 15.4966 2.72 17.6993 2.72C18.7819 2.72 19.8739 2.87867 20.9753 3.196C23.7379 3.94267 26.2393 5.02533 28.4793 6.444C29.0579 5.80933 29.6553 5.492 30.2713 5.492C30.9619 5.492 31.3166 5.72533 31.3353 6.192C31.3539 6.39733 31.2886 6.49067 31.1393 6.472C31.0459 6.45333 30.9433 6.37867 30.8313 6.248C30.6819 6.192 30.5419 6.164 30.4113 6.164C30.0006 6.164 29.5806 6.36933 29.1513 6.78C30.5326 7.47067 32.1566 8.05867 34.0233 8.544C34.7513 8.712 35.3299 8.796 35.7593 8.796C36.1886 8.796 36.5153 8.78667 36.7393 8.768C37.5606 8.67467 38.0926 8.36667 38.3353 7.844C38.4659 7.564 38.5779 7.396 38.6713 7.34C38.7833 7.26533 38.8486 7.29333 38.8673 7.424C38.8673 7.48 38.8673 7.55467 38.8673 7.648C38.8673 8.41333 38.4753 8.992 37.6913 9.384C37.2059 9.62667 36.7486 9.748 36.3193 9.748C35.8899 9.748 35.4233 9.71067 34.9193 9.636C34.4153 9.54267 33.7619 9.36533 32.9592 9.104C32.1566 8.84267 31.5033 8.6 30.9993 8.376C30.4953 8.152 30.0006 7.91867 29.5153 7.676L28.7313 7.284C27.7606 8.38533 26.7246 10.28 25.6233 12.968C25.2686 13.864 25.0633 14.3773 25.0073 14.508C26.0899 14.6573 27.0886 14.732 28.0033 14.732C28.9179 14.732 29.6366 14.7227 30.1593 14.704C30.7006 14.6667 30.9806 14.7227 30.9993 14.872C31.0179 15.2827 29.6273 15.488 26.8273 15.488C25.9313 15.488 25.2126 15.4507 24.6713 15.376C23.5139 18.5493 22.3566 20.9013 21.1993 22.432C20.7139 23.0667 20.1073 23.7293 19.3793 24.42C18.6513 25.1293 17.8766 25.6987 17.0553 26.128C15.2073 27.136 13.1446 27.64 10.8673 27.64C8.58992 27.64 6.65792 27.136 5.07125 26.128C2.66325 24.6347 1.45925 22.4787 1.45925 19.66C1.45925 18.708 1.61792 17.6907 1.93525 16.608C2.15925 15.8987 2.56992 15.2733 3.16725 14.732C3.78325 14.1907 4.29658 13.864 4.70725 13.752C5.11792 13.6213 5.30458 13.5933 5.26725 13.668C5.24858 13.7427 4.93125 13.9947 4.31525 14.424C3.10192 15.3013 2.38325 16.384 2.15925 17.672C2.06592 18.1387 2.01925 18.68 2.01925 19.296C2.01925 19.912 2.15925 20.584 2.43925 21.312C3.20458 23.2907 4.79125 24.7467 7.19925 25.68C8.33792 26.1093 9.56058 26.324 10.8673 26.324C12.1739 26.324 13.4713 26.0627 14.7593 25.54C16.0473 25.0173 17.2419 24.2333 18.3433 23.188C20.4899 21.1533 22.2633 18.5213 23.6633 15.292L21.8713 15.264C19.6873 15.264 18.2499 15.768 17.5593 16.776C17.3913 16.9813 17.2513 17.0373 17.1393 16.944C17.0459 16.832 17.0366 16.692 17.1113 16.524C17.5219 15.628 18.1006 14.984 18.8473 14.592C19.5939 14.2 20.3313 14.004 21.0593 14.004C21.8059 14.004 22.8046 14.088 24.0553 14.256C24.6339 12.8373 25.3619 11.3627 26.2393 9.832C27.1353 8.30133 27.7606 7.33067 28.1153 6.92ZM36.9086 13.108C36.6472 13.332 36.3579 13.444 36.0406 13.444C35.7232 13.444 35.4712 13.332 35.2846 13.108C35.0979 12.884 35.0232 12.6133 35.0606 12.296C35.1166 11.9787 35.2752 11.708 35.5366 11.484C35.7979 11.26 36.0872 11.148 36.4046 11.148C36.7219 11.148 36.9739 11.26 37.1606 11.484C37.3659 11.708 37.4406 11.9787 37.3846 12.296C37.3286 12.6133 37.1699 12.884 36.9086 13.108ZM34.1646 23.384C34.5192 23.384 34.8926 23.2067 35.2846 22.852C35.9752 22.1613 36.8526 20.752 37.9166 18.624C38.0472 18.344 38.1779 18.26 38.3086 18.372C38.3459 18.4093 38.3646 18.4747 38.3646 18.568C38.3646 18.6427 38.2899 18.848 38.1406 19.184C37.9912 19.5013 37.8512 19.7907 37.7206 20.052C37.6086 20.3133 37.3752 20.7427 37.0206 21.34C36.6846 21.9187 36.3766 22.3667 36.0966 22.684C35.3312 23.5613 34.6032 24 33.9126 24C33.2406 24 32.7552 23.7947 32.4566 23.384C32.1579 22.9733 32.0086 22.516 32.0086 22.012C32.0086 21.508 32.1299 20.9573 32.3726 20.36L34.1646 15.796C34.2019 15.684 34.2206 15.5347 34.2206 15.348C34.2206 15.1613 34.1086 14.9187 33.8846 14.62L35.4246 14.592C35.8539 14.592 36.1059 14.676 36.1806 14.844C36.2552 14.9933 36.1992 15.236 36.0126 15.572L33.7726 20.808C33.4552 21.4987 33.2966 22.0867 33.2966 22.572C33.2966 23.1133 33.5859 23.384 34.1646 23.384ZM41.7198 12.772C41.7198 13.612 41.1878 14.4053 40.1238 15.152C40.4971 15.1707 40.9918 15.18 41.6078 15.18C42.2424 15.18 43.0358 15.1333 43.9878 15.04C44.0251 15.096 44.0438 15.2453 44.0438 15.488C44.0438 15.7307 43.9318 16.0947 43.7078 16.58C43.4838 17.0467 43.2784 17.4573 43.0918 17.812C42.9238 18.148 42.7558 18.4747 42.5878 18.792C42.4384 19.0907 42.2611 19.464 42.0558 19.912C41.8691 20.36 41.7104 20.7707 41.5798 21.144C41.1131 22.5627 41.1878 23.272 41.8038 23.272C42.5878 23.272 43.7451 21.7133 45.2758 18.596C45.4064 18.3533 45.5091 18.26 45.5838 18.316C45.6771 18.372 45.7238 18.4467 45.7238 18.54C45.7238 18.6147 45.6024 18.904 45.3598 19.408C45.1171 19.8933 44.8558 20.3973 44.5757 20.92C44.2958 21.4427 43.8571 22.0493 43.2598 22.74C42.5504 23.5987 41.8691 24.028 41.2158 24.028C40.4878 24.028 39.9838 23.5893 39.7038 22.712C39.6478 22.544 39.6198 22.292 39.6198 21.956C39.6198 21.62 39.7224 21.172 39.9278 20.612C40.1518 20.052 40.4971 19.3707 40.9638 18.568C41.4304 17.7653 41.6918 17.2987 41.7478 17.168C41.8038 17.0187 41.8318 16.8787 41.8318 16.748C41.8318 16.1693 41.0851 15.8613 39.5918 15.824L39.2558 16.72C38.0798 19.8 36.9504 21.8627 35.8677 22.908C35.6811 23.076 35.5877 23.02 35.5877 22.74C35.5877 22.684 35.6064 22.6187 35.6437 22.544C36.6891 21.1627 37.5944 19.5293 38.3598 17.644C39.1251 15.7587 39.6571 13.9667 39.9558 12.268C40.0678 11.6893 40.3291 11.4 40.7398 11.4C41.1504 11.4 41.4491 11.6613 41.6358 12.184C41.6918 12.352 41.7198 12.548 41.7198 12.772ZM53.7252 16.412C53.3892 16.748 52.9132 17.5133 52.2972 18.708C51.6812 19.884 51.3079 20.7707 51.1772 21.368C51.0652 21.9467 51.0092 22.4227 51.0092 22.796C51.0092 23.1507 51.1492 23.328 51.4292 23.328C51.7839 23.328 52.2225 23.0013 52.7452 22.348C53.5105 21.396 54.2665 20.1547 55.0132 18.624C55.0879 18.456 55.1719 18.3627 55.2652 18.344C55.4145 18.288 55.4892 18.344 55.4892 18.512C55.4892 18.6053 55.4612 18.7173 55.4052 18.848C53.6879 22.32 52.2412 24.056 51.0652 24.056C50.5239 24.056 50.0852 23.7947 49.7492 23.272C49.5812 22.992 49.4972 22.6187 49.4972 22.152C49.4972 21.6853 49.5905 21.116 49.7772 20.444C48.2839 22.852 46.9959 24.056 45.9132 24.056C45.6145 24.056 45.3439 23.9627 45.1012 23.776C44.5412 23.384 44.2612 22.712 44.2612 21.76C44.2612 19.9307 45.0545 18.0733 46.6412 16.188C47.5372 15.1427 48.6385 14.4613 49.9452 14.144C50.2999 14.0507 50.6359 14.004 50.9532 14.004C51.8119 14.004 52.5399 14.3027 53.1372 14.9C53.3239 15.1053 53.3799 15.3013 53.3052 15.488C53.2305 15.6747 53.0719 15.7493 52.8292 15.712C52.6239 15.04 52.1759 14.704 51.4852 14.704C50.6825 14.704 49.6932 15.3387 48.5172 16.608C47.8452 17.3547 47.2199 18.232 46.6412 19.24C45.9132 20.4533 45.5492 21.424 45.5492 22.152C45.5492 22.88 45.7825 23.244 46.2492 23.244C47.3692 23.244 48.8345 21.5267 50.6452 18.092C50.9999 17.4013 51.2985 16.9347 51.5412 16.692C51.7839 16.4307 52.0919 16.3 52.4652 16.3C52.5399 16.3 52.7265 16.328 53.0252 16.384C53.3425 16.44 53.5759 16.4493 53.7252 16.412ZM63.4583 14.816C61.1623 18.848 60.0143 21.48 60.0143 22.712C60.0143 23.1973 60.1916 23.44 60.5463 23.44C61.4983 23.44 62.7769 21.8253 64.3823 18.596C64.4943 18.3347 64.6063 18.232 64.7183 18.288C64.8303 18.344 64.8863 18.4187 64.8863 18.512C64.8863 18.6053 64.8489 18.7173 64.7743 18.848C63.7849 20.8453 62.9449 22.2267 62.2543 22.992C61.5823 23.7387 60.9009 24.112 60.2103 24.112C59.5383 24.112 59.0249 23.8507 58.6703 23.328C58.4836 23.0853 58.3903 22.7587 58.3903 22.348C58.3903 21.9187 58.4836 21.4053 58.6703 20.808C58.8569 20.2107 59.3703 19.24 60.2103 17.896C60.4156 17.56 60.5183 17.2987 60.5183 17.112C60.5183 16.9067 60.3596 16.804 60.0423 16.804C59.7249 16.804 59.1183 17.224 58.2223 18.064C56.8783 19.296 55.5809 21.144 54.3302 23.608C54.2183 23.7947 54.0876 23.916 53.9383 23.972C53.8076 24.0093 53.5369 24.0373 53.1262 24.056C52.7156 24.0747 52.4449 24.1213 52.3142 24.196C52.6129 23.5987 53.2009 22.376 54.0783 20.528C55.6463 17.2613 56.6729 15.3947 57.1583 14.928C57.3823 14.704 57.6903 14.592 58.0823 14.592C58.1569 14.592 58.3436 14.62 58.6423 14.676C58.9596 14.732 59.1929 14.7413 59.3423 14.704C58.6516 15.0773 57.5223 16.832 55.9543 19.968C56.8316 18.8853 57.6249 18.0267 58.3343 17.392C59.0623 16.7387 59.9303 16.1413 60.9383 15.6C61.9463 15.04 62.6836 14.76 63.1503 14.76C63.2623 14.76 63.3649 14.7787 63.4583 14.816ZM60.5172 32.848C59.6958 32.848 59.0612 32.6707 58.6132 32.316C58.1652 31.98 57.9412 31.5693 57.9412 31.084C57.9412 30.5987 58.0812 30.048 58.3612 29.432C58.8465 28.48 59.7238 27.7147 60.9932 27.136C61.9452 26.688 63.2052 26.268 64.7732 25.876C66.3412 25.5027 67.3492 25.2507 67.7972 25.12C68.4692 23.944 69.2718 21.844 70.2052 18.82C69.1225 20.724 68.2172 22.0587 67.4892 22.824C66.7612 23.5893 66.0238 23.972 65.2772 23.972C64.2692 23.972 63.6812 23.552 63.5132 22.712C63.4385 22.5813 63.4198 22.3853 63.4572 22.124C63.4945 21.8627 63.5132 21.676 63.5132 21.564C63.5318 21.452 63.5972 21.2747 63.7092 21.032C63.8212 20.7707 63.8958 20.584 63.9332 20.472C64.1385 20.0427 64.3158 19.7067 64.4652 19.464C64.1665 19.464 64.0825 19.3147 64.2132 19.016L64.7172 18.036C65.3518 16.8227 65.8745 15.796 66.2852 14.956C66.4718 14.564 66.8358 14.368 67.3772 14.368H69.0852C69.0478 14.4053 68.9545 14.48 68.8052 14.592C68.4692 14.816 68.2172 15.0773 68.0492 15.376C67.3772 16.5333 66.5372 18.1853 65.5292 20.332C65.1185 21.2093 64.9132 21.8533 64.9132 22.264C64.9132 22.6747 64.9785 22.964 65.1092 23.132C65.2585 23.3 65.4545 23.384 65.6972 23.384C66.0518 23.384 66.5465 23.0107 67.1812 22.264C68.5065 20.7147 69.9718 18.2787 71.5772 14.956C71.7825 14.564 72.1465 14.368 72.6692 14.368H74.1812C73.6958 14.704 73.3132 15.1333 73.0332 15.656C72.7532 16.16 72.4452 16.8507 72.1092 17.728C71.7918 18.6053 71.3812 19.772 70.8772 21.228C70.3918 22.684 70.0185 23.776 69.7572 24.504C71.5118 23.9813 72.8558 23.0573 73.7892 21.732C74.1998 21.1533 74.7878 20.1267 75.5532 18.652C75.6838 18.3907 75.7958 18.288 75.8892 18.344C76.0012 18.4 76.0572 18.4747 76.0572 18.568C76.0572 18.6613 75.8985 19.0253 75.5812 19.66C75.2825 20.276 74.9745 20.8547 74.6572 21.396C74.3398 21.9187 73.9292 22.46 73.4252 23.02C72.9212 23.58 72.3612 24.0187 71.7452 24.336C71.1292 24.672 70.3078 25.0267 69.2812 25.4C67.8438 28.0133 66.3972 29.936 64.9412 31.168C63.5785 32.288 62.1038 32.848 60.5172 32.848ZM58.8932 30.076C58.6878 30.4867 58.5852 30.86 58.5852 31.196C58.5852 31.5507 58.7158 31.8213 58.9772 32.008C59.2385 32.1947 59.5652 32.288 59.9572 32.288C61.0398 32.288 62.1972 31.728 63.4292 30.608C64.6612 29.5067 65.7438 28.3213 66.6772 27.052L67.2932 26.016C64.2132 26.8187 62.2718 27.3973 61.4692 27.752C60.2745 28.2747 59.4158 29.0493 58.8932 30.076Z" fill="black"/>
</svg>
