<svg viewBox="-105 0 512 512" xmlns="http://www.w3.org/2000/svg"><path d="m105.035156 341.332031h-52.515625l52.515625-52.429687zm0 0" fill="#ffb442"/><path d="m210.074219 44.3125v423.371094c0 24.46875-19.878907 44.316406-44.386719 44.316406h-16.257812c-1.832032 0-3.625-.105469-5.394532-.332031-1.570312-.179688-3.105468-.457031-4.609375-.796875-17.789062-4.089844-31.472656-18.847656-33.980469-37.148438-.265624-1.972656-.40625-3.996094-.40625-6.039062v-406.332032h-52.515624v-61.351562h113.160156c24.523437 0 44.390625 19.847656 44.390625 44.3125zm0 0" fill="#ffd764"/><path d="m63.421875 341.332031h-21.808594c-22.980469 0-41.613281-18.632812-41.613281-41.613281v-258.101562c0-22.980469 18.632812-41.61328175 41.613281-41.61328175h21.808594c22.980469 0 41.613281 18.63281275 41.613281 41.61328175v258.097656c0 22.984375-18.628906 41.617187-41.613281 41.617187zm0 0" fill="#ffa222"/><path d="m53.691406 308.863281h-2.347656c-9.742188 0-17.644531-7.898437-17.644531-17.640625v-241.109375c0-9.742187 7.902343-17.640625 17.644531-17.640625h2.347656c9.746094 0 17.644532 7.898438 17.644532 17.640625v241.109375c0 9.742188-7.898438 17.640625-17.644532 17.640625zm0 0" fill="#ff8200"/><path d="m210.074219 254.503906v213.183594c0 24.464844-19.878907 44.3125-44.386719 44.3125h-16.257812c-1.832032 0-3.625-.105469-5.394532-.328125 1.554688-.183594 3.082032-.449219 4.585938-.800781 19.707031-4.515625 34.417968-22.136719 34.417968-43.1875v-202.703125c0-5.792969 4.703126-10.476563 10.503907-10.476563zm0 0" fill="#ffca4f"/><path d="m301.980469 304.300781v163.386719c0 24.464844-19.878907 44.3125-44.386719 44.3125h-105.039062c24.511718 0 44.390624-19.847656 44.390624-44.3125v-163.386719c0-5.789062 4.703126-10.488281 10.507813-10.488281h84.011719c5.8125 0 10.515625 4.699219 10.515625 10.488281zm0 0" fill="#ffd764"/><g fill="#ffb442"><path d="m105.039062 54.195312c.214844.019532.4375.03125.652344.03125h46.203125c4.425781 0 8-3.566406 8-7.984374 0-4.410157-3.574219-7.988282-8-7.988282h-46.203125c-.363281 0-.714844.023438-1.054687.074219zm0 0"/><path d="m159.894531 151.117188c0 4.417968-3.574219 7.988281-8 7.988281h-46.203125c-.214844 0-.4375-.011719-.652344-.035157v-15.90625c.214844-.019531.4375-.03125.652344-.03125h46.203125c4.425781 0 8 3.578126 8 7.984376zm0 0"/><path d="m159.894531 255.996094c0 4.417968-3.574219 7.984375-8 7.984375h-46.203125c-.214844 0-.4375-.011719-.652344-.03125v-15.90625c.214844-.023438.4375-.03125.652344-.03125h46.203125c4.425781-.003907 8 3.574219 8 7.984375zm0 0"/><path d="m159.894531 360.871094c0 4.417968-3.574219 7.984375-8 7.984375h-46.203125c-.214844 0-.4375-.007813-.652344-.03125v-15.90625c.214844-.019531.4375-.03125.652344-.03125h46.203125c4.425781 0 8 3.578125 8 7.984375zm0 0"/><path d="m159.894531 465.746094c0 4.421875-3.574219 7.988281-8 7.988281h-46.203125c-.085937 0-.160156 0-.246094-.011719-.265624-1.96875-.40625-3.992187-.40625-6.035156v-9.890625c.214844-.023437.4375-.035156.652344-.035156h46.203125c4.425781 0 8 3.578125 8 7.984375zm0 0"/><path d="m136.796875 72.863281c0-4.410156-3.582031-7.984375-8-7.984375s-8 3.574219-8 7.984375c0 4.414063 3.582031 7.988281 8 7.988281s8-3.574218 8-7.988281zm0 0"/><path d="m136.796875 98.683594c0-4.410156-3.582031-7.984375-8-7.984375s-8 3.574219-8 7.984375 3.582031 7.988281 8 7.988281 8-3.578125 8-7.988281zm0 0"/><path d="m136.796875 124.503906c0-4.410156-3.582031-7.984375-8-7.984375s-8 3.574219-8 7.984375 3.582031 7.988282 8 7.988282 8-3.578126 8-7.988282zm0 0"/><path d="m136.796875 177.742188c0-4.410157-3.582031-7.984376-8-7.984376s-8 3.574219-8 7.984376c0 4.410156 3.582031 7.984374 8 7.984374s8-3.574218 8-7.984374zm0 0"/><path d="m136.796875 203.5625c0-4.410156-3.582031-7.988281-8-7.988281s-8 3.578125-8 7.988281 3.582031 7.984375 8 7.984375 8-3.574219 8-7.984375zm0 0"/><path d="m136.796875 229.382812c0-4.414062-3.582031-7.988281-8-7.988281s-8 3.574219-8 7.988281c0 4.410157 3.582031 7.984376 8 7.984376s8-3.574219 8-7.984376zm0 0"/><path d="m136.796875 282.617188c0-4.410157-3.582031-7.984376-8-7.984376s-8 3.574219-8 7.984376c0 4.410156 3.582031 7.988281 8 7.988281s8-3.578125 8-7.988281zm0 0"/><path d="m136.796875 308.4375c0-4.410156-3.582031-7.984375-8-7.984375s-8 3.574219-8 7.984375 3.582031 7.988281 8 7.988281 8-3.578125 8-7.988281zm0 0"/><path d="m136.796875 334.257812c0-4.410156-3.582031-7.984374-8-7.984374s-8 3.574218-8 7.984374c0 4.410157 3.582031 7.984376 8 7.984376s8-3.574219 8-7.984376zm0 0"/><path d="m136.796875 387.496094c0-4.410156-3.582031-7.988282-8-7.988282s-8 3.578126-8 7.988282 3.582031 7.984375 8 7.984375 8-3.574219 8-7.984375zm0 0"/><path d="m136.796875 413.316406c0-4.410156-3.582031-7.988281-8-7.988281s-8 3.578125-8 7.988281 3.582031 7.984375 8 7.984375 8-3.574219 8-7.984375zm0 0"/><path d="m136.796875 439.132812c0-4.410156-3.582031-7.984374-8-7.984374s-8 3.574218-8 7.984374c0 4.410157 3.582031 7.988282 8 7.988282s8-3.578125 8-7.988282zm0 0"/><path d="m248.769531 343.855469c0 4.410156-3.582031 7.988281-7.996093 7.988281h-43.828126v-15.972656h43.828126c4.414062 0 7.996093 3.578125 7.996093 7.984375zm0 0"/><path d="m248.769531 448.734375c0 4.40625-3.582031 7.984375-7.996093 7.984375h-43.828126v-15.972656h43.828126c4.414062 0 7.996093 3.578125 7.996093 7.988281zm0 0"/><path d="m225.667969 370.476562c0-4.410156-3.582031-7.988281-7.996094-7.988281-4.417969 0-8 3.578125-8 7.988281 0 4.410157 3.582031 7.984376 8 7.984376 4.414063 0 7.996094-3.574219 7.996094-7.984376zm0 0"/><path d="m225.667969 396.296875c0-4.414063-3.582031-7.988281-7.996094-7.988281-4.417969 0-8 3.574218-8 7.988281 0 4.410156 3.582031 7.984375 8 7.984375 4.414063 0 7.996094-3.574219 7.996094-7.984375zm0 0"/><path d="m225.667969 422.113281c0-4.410156-3.582031-7.984375-7.996094-7.984375-4.417969 0-8 3.574219-8 7.984375 0 4.414063 3.582031 7.988281 8 7.988281 4.414063 0 7.996094-3.574218 7.996094-7.988281zm0 0"/><path d="m225.667969 475.351562c0-4.410156-3.582031-7.984374-7.996094-7.984374-4.417969 0-8 3.574218-8 7.984374 0 4.410157 3.582031 7.988282 8 7.988282 4.414063 0 7.996094-3.578125 7.996094-7.988282zm0 0"/><path d="m217.671875 501.171875c0-4.410156-3.582031-7.984375-8-7.984375s-8 3.574219-8 7.984375 3.582031 7.984375 8 7.984375 8-3.574219 8-7.984375zm0 0"/></g><path d="m275.546875 264.355469h-58.375c-3.921875 0-7.097656 3.179687-7.097656 7.097656v22.359375h72.570312v-22.359375c0-3.917969-3.175781-7.097656-7.097656-7.097656zm0 0" fill="#e4eaf7"/><path d="m275.074219 264.355469h-7.09375c0 10.828125-8.792969 19.605469-19.640625 19.605469h-38.265625v9.851562h72.570312v-21.902344c0-4.171875-3.386719-7.554687-7.570312-7.554687zm0 0" fill="#c7cfe2"/></svg>