<?xml version="1.0" standalone="no"?>
<!DOCTYPE svg PUBLIC "-//W3C//DTD SVG 20010904//EN"
 "http://www.w3.org/TR/2001/REC-SVG-20010904/DTD/svg10.dtd">
<svg version="1.0" xmlns="http://www.w3.org/2000/svg"
 width="195.000000pt" height="195.000000pt" viewBox="0 0 195.000000 195.000000"
 preserveAspectRatio="xMidYMid meet">
<metadata>
Created by potrace 1.11, written by Peter Selinger 2001-2013
</metadata>
<g transform="translate(0.000000,195.000000) scale(0.100000,-0.100000)"
fill="#000000" stroke="none">
<path d="M720 1604 c-157 -42 -280 -181 -280 -317 0 -67 15 -102 64 -145 65
-57 159 -64 253 -20 69 32 125 109 110 150 -3 9 -7 6 -11 -7 -23 -68 -96 -127
-176 -140 -52 -9 -117 11 -152 45 -56 57 -25 174 71 263 146 137 351 152 615
47 65 -26 154 -66 164 -75 1 -1 -22 -41 -52 -90 -31 -48 -78 -133 -105 -189
l-50 -102 -77 9 c-89 10 -149 -1 -205 -38 -46 -30 -86 -92 -71 -107 8 -8 13
-7 18 6 3 9 27 29 53 44 41 24 58 27 154 31 59 2 107 0 107 -4 0 -4 -23 -51
-51 -104 -208 -399 -526 -553 -843 -408 -74 34 -159 116 -193 186 -22 46 -27
70 -27 136 -1 105 32 178 105 233 54 40 50 57 -5 22 -78 -48 -110 -105 -124
-221 -16 -142 16 -248 104 -336 96 -97 214 -139 389 -137 308 3 515 169 663
534 l37 91 145 3 c139 3 180 9 180 26 0 5 -65 10 -144 12 -79 1 -148 6 -151
10 -16 15 126 318 165 353 20 18 22 18 78 -9 91 -45 221 -87 292 -93 99 -8
170 33 170 98 0 21 -3 19 -35 -15 l-35 -38 -92 4 c-92 5 -176 27 -293 78 -48
21 -49 22 -30 37 13 9 33 13 58 10 42 -6 52 14 16 33 -25 14 -70 5 -103 -21
l-24 -19 -59 34 c-84 49 -223 105 -331 132 -108 27 -209 30 -292 8z"/>
</g>
</svg>
