<svg viewBox="0 -79 512 511" xmlns="http://www.w3.org/2000/svg"><g fill="#d7deed"><path d="m62.902344 238.558594c-4.269532 0-7.730469-3.460938-7.730469-7.730469v-55.648437c0-4.269532 3.460937-7.730469 7.730469-7.730469 4.273437 0 7.734375 3.460937 7.734375 7.730469v55.648437c0 4.269531-3.460938 7.730469-7.734375 7.730469zm0 0"/><path d="m287.710938 65.941406c-4.273438 0-7.734376-3.460937-7.734376-7.730468v-49.980469c0-4.269531 3.460938-7.730469 7.734376-7.730469 4.269531 0 7.734374 3.460938 7.734374 7.730469v49.980469c0 4.269531-3.464843 7.730468-7.734374 7.730468zm0 0"/><path d="m63.421875 47.390625c-4.273437 0-7.734375-3.460937-7.734375-7.730469v-11.335937c0-4.269531 3.460938-7.726563 7.734375-7.726563 4.269531 0 7.730469 3.460938 7.730469 7.726563v11.335937c0 4.269532-3.460938 7.730469-7.730469 7.730469zm0 0"/></g><path d="m397.882812 183.425781h-49.847656c-4.269531 0-7.734375-3.460937-7.734375-7.730469 0-4.269531 3.464844-7.730468 7.734375-7.730468h49.847656c9.476563 0 17.183594-7.699219 17.183594-17.167969v-76.609375c0-4.269531 3.460938-7.730469 7.734375-7.730469 4.269531 0 7.730469 3.460938 7.730469 7.730469v76.609375c.003906 17.988281-14.644531 32.628906-32.648438 32.628906zm0 0" fill="#464655"/><path d="m333.902344 68.5625 13.949218 31.328125 25.449219 22.386719v-84.164063zm0 0" fill="#3b3b47"/><path d="m297.699219 56.382812-149.679688 12.941407c-9.421875.816406-18.851562-1.445313-26.871093-6.453125-4.917969-3.066406-10.636719-6.648438-15.863282-9.960938-11.023437-6.976562-23.800781-10.671875-36.847656-10.671875-4.363281 0-8.582031 0-11.710938 0-2.855468 0-5.164062 2.3125-5.164062 5.164063v123.644531c0 2.851563 2.3125 5.164063 5.164062 5.164063 18.742188 0 33.886719-15.269532 33.722657-33.996094l.011719-1.234375c.125-12.738281 10.492187-22.996094 23.234374-22.996094h111.699219c23.34375 0 41.257813 20.695313 37.898438 43.78125l-10.300781 70.613281h95.042968v-129.859375c0-27.152343-23.265625-48.480469-50.335937-46.136719zm0 0" fill="#464655"/><path d="m262.386719 146.335938.902343-6.214844c3.363282-23.085938-14.550781-43.78125-37.894531-43.78125h-111.699219c-47.699218 0-31.199218 29.628906-62.132812 29.628906v45.078125c0 2.851563 2.3125 5.164063 5.164062 5.164063 18.742188 0 33.886719-15.269532 33.722657-33.996094l.011719-1.238282c.125-12.734374 10.488281-22.992187 23.234374-22.992187h111.699219c17.933594 0 32.652344 12.21875 36.992188 28.351563zm0 0" fill="#3b3b47"/><path d="m252.992188 232.375h95.042968v-21.640625h-91.886718zm0 0" fill="#3b3b47"/><path d="m377.941406 239.589844c-4.269531 0-7.734375-3.460938-7.734375-7.730469v-14.941406c0-4.269531 3.464844-7.730469 7.734375-7.730469 4.273438 0 7.734375 3.460938 7.734375 7.730469v14.941406c0 4.269531-3.460937 7.730469-7.734375 7.730469zm0 0" fill="#696c84"/><path d="m432.21875 128.546875h-9.417969c-4.273437 0-7.734375-3.460937-7.734375-7.730469 0-4.265625 3.460938-7.726562 7.734375-7.726562h9.417969c2.625 0 5.097656-1.398438 6.453125-3.648438l16.351563-26.6875c2.203124-3.65625 6.957031-4.835937 10.617187-2.636718 3.65625 2.203124 4.839844 6.953124 2.636719 10.609374l-16.355469 26.6875c-4.136719 6.867188-11.6875 11.132813-19.703125 11.132813zm0 0" fill="#464655"/><path d="m59.289062 352.949219h-23.707031c-2.28125 0-4.128906-1.847657-4.128906-4.128907v-20.601562h31.96875v20.601562c0 2.28125-1.851563 4.128907-4.132813 4.128907zm0 0" fill="#707487"/><path d="m471.777344 352.949219h-23.710938c-2.277344 0-4.128906-1.847657-4.128906-4.128907v-20.601562h31.96875v20.601562c0 2.28125-1.847656 4.128907-4.128906 4.128907zm0 0" fill="#707487"/><path d="m503.457031 328.730469h-498.523437c-2.722656 0-4.933594-2.207031-4.933594-4.933594v-87.003906c0-2.722657 2.210938-4.933594 4.933594-4.933594h498.523437c2.722657 0 4.933594 2.210937 4.933594 4.933594v87.003906c0 2.726563-2.207031 4.933594-4.933594 4.933594zm0 0" fill="#ffb464"/><path d="m503.300781 231.859375h-27.394531c0 36.710937-29.777344 66.472656-66.511719 66.472656h-409.394531v25.316407c0 2.804687 2.277344 5.082031 5.089844 5.082031h498.210937c2.8125 0 5.089844-2.277344 5.089844-5.082031v-86.703126c0-2.808593-2.277344-5.085937-5.089844-5.085937zm0 0" fill="#ff9b54"/><path d="m498.5 101.492188h-30.746094c-7.457031 0-13.5-6.042969-13.5-13.5v-.824219c0-7.453125 6.042969-13.5 13.5-13.5h30.746094c7.457031 0 13.5 6.046875 13.5 13.5v.824219c0 7.457031-6.042969 13.5-13.5 13.5zm0 0" fill="#d7deed"/><path d="m498.078125 90.9375h-29.902344c-5.820312 0-10.796875-3.570312-12.878906-8.632812-.667969 1.628906-1.042969 3.410156-1.042969 5.277343 0 7.683594 6.230469 13.914063 13.917969 13.914063h29.90625c7.6875 0 13.921875-6.230469 13.921875-13.914063 0-1.867187-.375-3.648437-1.046875-5.277343-2.078125 5.0625-7.054687 8.632812-12.875 8.632812zm0 0" fill="#c7cfe2"/><path d="m386.050781 153.535156h-.75c-6.625 0-12-5.371094-12-12v-107.910156c0-6.625 5.375-12 12-12h.75c6.625 0 12 5.375 12 12v107.910156c0 6.628906-5.371093 12-12 12zm0 0" fill="#d7deed"/><path d="m385.675781 117.46875c-6.832031 0-12.375-5.539062-12.375-12.367188v36.070313c0 6.828125 5.539063 12.363281 12.375 12.363281 6.835938 0 12.375-5.535156 12.375-12.363281v-36.070313c0 6.828126-5.539062 12.367188-12.375 12.367188zm0 0" fill="#c7cfe2"/><path d="m303.609375 209.1875c-4.273437 0-7.734375-3.460938-7.734375-7.726562v-43.285157c0-4.269531 3.460938-7.730469 7.734375-7.730469 4.269531 0 7.734375 3.460938 7.734375 7.730469v43.28125c0 4.269531-3.464844 7.730469-7.734375 7.730469zm0 0" fill="#ffd764"/><path d="m325.265625 105.617188c0-11.953126-9.699219-21.640626-21.65625-21.640626-11.960937 0-21.65625 9.6875-21.65625 21.640626 0 11.953124 9.695313 21.640624 21.65625 21.640624 11.957031 0 21.65625-9.6875 21.65625-21.640624zm0 0" fill="#ffd764"/></svg>