<svg viewBox="-67 0 512 512" xmlns="http://www.w3.org/2000/svg"><path d="m349.078125 512h-340.210937v-19.273438c0-7.109374 5.761718-12.871093 12.875-12.871093h314.460937c7.113281 0 12.875 5.761719 12.875 12.871093zm0 0" fill="#afb9d2"/><path d="m335.394531 479.855469h-66.960937c7.558594 0 13.683594 6.117187 13.683594 13.664062v18.480469h66.960937v-18.480469c0-7.546875-6.125-13.664062-13.683594-13.664062zm0 0" fill="#a1a8c6"/><path d="m26.351562 479.855469 86.28125-51.9375h132.113282l86.847656 51.9375zm0 0" fill="#e4eaf7"/><path d="m273.421875 479.855469h58.171875l-86.847656-51.9375h-132.113282l-53.402343 32.144531h142.519531c25.242188 0 50.015625 6.839844 71.671875 19.792969zm0 0" fill="#c7cfe2"/><path d="m8.867188 0h340.210937v19.273438c0 7.109374-5.765625 12.871093-12.875 12.871093h-314.460937c-7.113282 0-12.875-5.761719-12.875-12.871093zm0 0" fill="#afb9d2"/><path d="m279.460938 0v18.480469c0 7.546875-6.128907 13.664062-13.683594 13.664062h69.617187c7.558594 0 13.683594-6.117187 13.683594-13.664062v-18.480469zm0 0" fill="#a1a8c6"/><path d="m331.59375 32.144531-86.28125 51.9375h-132.113281l-86.847657-51.9375zm0 0" fill="#e4eaf7"/><path d="m26.351562 32.144531 22.484376 13.445313h168.761718c15.390625 0 21.023438 20.234375 7.84375 28.167968l-17.152344 10.324219h37.023438l86.28125-51.9375zm0 0" fill="#c7cfe2"/><path d="m317.773438 448.308594h-277.601563c-5.214844 0-9.441406-4.230469-9.441406-9.445313v-368.121093c0-5.214844 4.226562-9.441407 9.441406-9.441407h277.601563c5.214843 0 9.441406 4.226563 9.441406 9.441407v368.121093c0 5.214844-4.226563 9.445313-9.441406 9.445313zm0 0" fill="#ff87ba"/><g fill="#ea7db1"><path d="m30.730469 208.210938h296.484375v15.921874h-296.484375zm0 0"/><path d="m30.730469 323.867188h296.484375v15.921874h-296.484375zm0 0"/><path d="m30.730469 400.972656h296.484375v15.921875h-296.484375zm0 0"/><path d="m30.730469 92.554688h296.484375v15.921874h-296.484375zm0 0"/><path d="m30.730469 362.421875h296.484375v15.921875h-296.484375zm0 0"/><path d="m30.730469 131.105469h296.484375v15.921875h-296.484375zm0 0"/><path d="m30.730469 169.65625h296.484375v15.925781h-296.484375zm0 0"/></g><path d="m369.84375 75.988281c-13.050781-13.035156-34.40625-12.371093-46.621094 1.445313l-322.777344 365.121094c-1.398437 1.578124.796876 3.769531 2.378907 2.375l365.570312-322.378907c13.835938-12.199219 14.5-33.527343 1.449219-46.5625zm-19.929688 29.765625-24.800781 24.769532c-1.558593 1.554687-3.597656 2.332031-5.636719 2.332031-2.039062 0-4.078124-.777344-5.636718-2.332031-3.113282-3.109376-3.113282-8.148438 0-11.257813l24.800781-24.769531c3.113281-3.109375 8.160156-3.109375 11.273437 0 3.113282 3.109375 3.113282 8.148437 0 11.257812zm0 0" fill="#d7deed"/><path d="m109.71875 254.726562-6.378906 38.550782h117.625l24.800781-38.550782zm0 0" fill="#ff87ba"/><path d="m30.730469 246.761719h296.484375v15.925781h-296.484375zm0 0" fill="#ea7db1"/><path d="m30.730469 285.316406h296.484375v15.921875h-296.484375zm0 0" fill="#ea7db1"/></svg>